<svg xmlns="http://www.w3.org/2000/svg" xmlns:xlink="http://www.w3.org/1999/xlink" viewBox="0 0 512 512"><defs><style>.cls-1{fill:#62b22f;}.cls-2{fill:url(#linear-gradient);}.cls-3{fill:#f6a43c;}.cls-4{fill:url(#linear-gradient-2);}.cls-5{fill:#335da8;}.cls-6{fill:url(#linear-gradient-3);}.cls-7{fill:none;}</style><linearGradient id="linear-gradient" x1="-5309.82" y1="7784.88" x2="-5345.26" y2="8048.66" gradientTransform="translate(-9217.17 -656.37) rotate(-118.83)" gradientUnits="userSpaceOnUse"><stop offset="0" stop-color="#62b22f"/><stop offset="0.11" stop-color="#6db73d"/><stop offset="0.32" stop-color="#8ac563"/><stop offset="0.61" stop-color="#b8dca1"/><stop offset="0.96" stop-color="#f7fbf5"/><stop offset="1" stop-color="#fff"/></linearGradient><linearGradient id="linear-gradient-2" x1="338.99" y1="223.76" x2="303.56" y2="487.52" gradientTransform="translate(4.77 -4.92) rotate(1.17)" gradientUnits="userSpaceOnUse"><stop offset="0" stop-color="#f6a43c"/><stop offset="0.12" stop-color="#f7ab4a"/><stop offset="0.34" stop-color="#f8bc70"/><stop offset="0.64" stop-color="#fbd9ae"/><stop offset="1" stop-color="#fff"/></linearGradient><linearGradient id="linear-gradient-3" x1="-9036.54" y1="-789.09" x2="-9071.97" y2="-525.34" gradientTransform="matrix(-0.52, 0.86, -0.86, -0.52, -5087.28, 7710.36)" gradientUnits="userSpaceOnUse"><stop offset="0" stop-color="#335da8"/><stop offset="0.11" stop-color="#4168ae"/><stop offset="0.32" stop-color="#6787be"/><stop offset="0.62" stop-color="#a5b7d9"/><stop offset="0.97" stop-color="#f9fafc"/><stop offset="1" stop-color="#fff"/></linearGradient></defs><g id="Layer_2" data-name="Layer 2"><g id="Layer_1-2" data-name="Layer 1"><g id="Trinity"><g id="Business"><path class="cls-1" d="M190.82,149.47s-32.63-29.1-50.59-46.76c17.34-55.57,58-88.64,117.64-82.3S381.78,85.65,421.62,165.62C377.88,155.36,190.82,149.47,190.82,149.47Z"/><path class="cls-2" d="M140.23,102.71C128,143,133.78,193.77,145.28,234.2,143.49,220.88,168,208,189.56,205.39a494.38,494.38,0,0,1,133.06,2.31c61.53,9.5,117.28,35.21,147.69,67.7L421.62,165.62C378.84,81.28,187.28,51.6,140.23,102.71Z"/></g><g id="Aethetics"><path class="cls-3" d="M404.53,295.84S446,282.13,470.31,275.4c39.45,42.81,47.75,94.6,12.45,143s-118.45,74.69-207.62,69.21C305.89,454.9,404.53,295.84,404.53,295.84Z"/><path class="cls-4" d="M470.31,275.4c-28.76-30.73-75.63-51.1-116.4-61.36,12.44,5.11,11.3,32.75,2.82,52.75C339.68,307,315.41,347,288.2,380.87c-39,48.54-89.14,84-132.49,94.05l119.43,12.73C369.56,492.76,491.06,341.71,470.31,275.4Z"/></g><g id="Technology"><path class="cls-5" d="M170.91,407.73s-8.89,42.81-15.2,67.19C98.92,487.69,49.92,469,25.62,414.19S20.16,274.26,69.5,199.77C82.48,242.78,170.91,407.73,170.91,407.73Z"/><path class="cls-6" d="M155.71,474.92c41-9.54,82.08-39.94,111.35-70.12-10.64,8.21-34-6.6-47.09-23.94a494.59,494.59,0,0,1-64.53-116.39c-22.54-58-28.15-119.18-15.21-161.76L69.5,199.77C17.85,279,87.92,459.73,155.71,474.92Z"/></g></g><rect class="cls-7" width="512" height="512"/></g></g></svg>